Coordinates
version=1
nRows=8
nColumns=34
inDegrees=yes

Units are S.I. units (second, meters, Newtons, ...)
If the header above contains a line with 'inDegrees', this indicates whether rotational values are in degrees (yes) or radians (no).

endheader
time	pelvis_tilt	pelvis_list	pelvis_rotation	pelvis_tx	pelvis_ty	pelvis_tz	hip_flexion_r	hip_adduction_r	hip_rotation_r	knee_angle_r	ankle_angle_r	subtalar_angle_r	mtp_angle_r	hip_flexion_l	hip_adduction_l	hip_rotation_l	knee_angle_l	ankle_angle_l	subtalar_angle_l	mtp_angle_l	lumbar_extension	lumbar_bending	lumbar_rotation	arm_flex_r	arm_add_r	arm_rot_r	elbow_flex_r	pro_sup_r	arm_flex_l	arm_add_l	arm_rot_l	elbow_flex_l	pro_sup_l
      3.25000000	     -0.86764670	    -14.70725253	    -50.25899618	      1.94873842	      0.98236394	      3.96123365	     21.42148536	     15.94146277	    -10.06475732	     23.00650622	     -2.82966968	     -0.33150622	      0.00000000	     19.46643112	      8.16739711	     -5.09696379	     25.74285075	     -3.06265182	    -19.82253034	      0.00000000	    -20.28476368	     -0.23853490	     22.20355121	     27.35456829	     25.09952135	     21.95860039	     24.21914959	    107.64213774	     12.97743853	     31.32018965	     54.76747121	     16.34444832	     91.84698832
      3.26666670	     -0.79257899	    -14.65475306	    -49.85382358	      1.94992487	      0.98280454	      3.96188474	     21.36642261	     15.73229224	    -10.20458399	     23.01047431	     -2.46059339	     -0.26093052	      0.00000000	     19.55417820	      8.08458942	     -7.00569327	     26.20268030	     -1.64918572	    -16.66644422	      0.00000000	    -20.30901774	     -0.28334626	     21.45758141	     27.28162547	     24.97142315	     22.08583860	     24.03553535	    107.69050815	     12.86349379	     31.46068707	     54.34521502	     15.99923935	     91.49662018
      3.28333330	     -0.86931295	    -14.52565324	    -49.18840245	      1.95081455	      0.98345025	      3.96244037	     21.33493986	     15.57356430	    -10.54344065	     22.59946843	     -2.50021898	     -0.44046802	      0.00000000	     19.59706991	      7.73238050	     -8.69869600	     26.39773560	     -0.97365677	    -12.18296779	      0.00000000	    -20.21708224	     -0.15914198	     20.48127679	     27.24178307	     25.10387080	     21.93617298	     23.73444255	    107.62469086	     12.87954549	     31.56961752	     53.83128026	     15.50344772	     91.12753296
      3.30000000	     -1.14188011	    -14.61303604	    -49.20181293	      1.95129483	      0.98406332	      3.96330196	     21.07881631	     15.95675203	    -10.27968091	     21.94785067	     -2.78686186	     -0.71469223	      0.00000000	     19.65450455	      6.75487723	    -11.57116786	     26.64409843	     -1.04306380	     -7.95988770	      0.00000000	    -20.05631369	      0.22836661	     19.75149633	     26.91034996	     25.29902275	     22.23532688	     23.69938979	    107.59468226	     12.87183019	     31.78379140	     52.85513333	     15.17004088	     90.57765955
      3.31666670	     -1.29339062	    -14.70165478	    -49.39323568	      1.95256832	      0.98418839	      3.96391494	     21.00124450	     16.14622798	    -10.11447479	     21.92704664	     -2.67511634	     -0.69235951	      0.00000000	     19.63963820	      6.57735088	    -11.81508825	     26.66293058	     -2.05832803	     -7.18407276	      0.00000000	    -19.89576235	      0.57561849	     19.40545382	     26.45559178	     25.32665742	     22.34463434	     23.62755464	    107.59286387	     12.74231654	     32.15019279	     52.68795897	     15.06377465	     90.48074274
      3.33333330	     -1.52323395	    -15.01600691	    -49.30689279	      1.95353076	      0.98435532	      3.96582986	     20.75560772	     16.48481873	    -10.63640350	     21.84849764	     -2.57150581	     -0.44045356	      0.00000000	     19.83554384	      5.95796754	    -12.33302310	     27.66598041	     -1.39648338	     -5.44298193	      0.00000000	    -19.74089862	      0.94899348	     18.89087665	     26.10069911	     25.48065057	     22.66951945	     23.33598795	    107.49081695	     12.49905271	     32.56949848	     51.27140242	     14.65461752	     89.77591754
      3.35000000	     -1.48008335	    -15.41542931	    -49.28852800	      1.95490554	      0.98450950	      3.96839228	     20.48118243	     16.71490044	    -10.88676850	     22.33420180	     -2.05141076	     -0.51912221	      0.00000000	     19.69040379	      5.72379973	    -12.38462471	     28.52008525	     -0.93653290	     -5.55881401	      0.00000000	    -19.73971615	      1.02048289	     18.73729735	     25.71433363	     25.56838093	     22.59465134	     22.95833444	    107.41999234	     12.14878890	     32.87339337	     51.14703173	     14.82438457	     89.68298048
      3.36666670	     -1.86560812	    -16.43823320	    -48.81802317	      1.95806430	      0.98476700	      3.97151506	     19.74501194	     17.29168996	    -12.78252610	     22.41390626	     -1.07574517	      1.41648477	      0.00000000	     19.39360035	      4.70109789	    -12.22832250	     29.96870476	      1.30968864	     -4.01150110	      0.00000000	    -19.63219189	      2.06934723	     17.87968181	     25.05625214	     25.93471197	     22.03483859	     22.14218211	    106.99512135	     11.52037372	     33.30014732	     50.29468045	     14.80164779	     89.08248029
